HIERARCHY
ROOT Hips
{
  OFFSET 52.999 38.041 -273.864
  CHANNELS 6 Xposition Yposition Zposition Zrotation Xrotation Yrotation
  JOINT LeftUpLeg
  {
    OFFSET 7.184 -5.274 3.418
    CHANNELS 6 Xposition Yposition Zposition Zrotation Xrotation Yrotation
    JOINT LeftLeg
    {
      OFFSET -0.000 -53.542 0.000
      CHANNELS 6 Xposition Yposition Zposition Zrotation Xrotation Yrotation
      JOINT LeftFoot
      {
        OFFSET 0.000 -39.576 -0.000
        CHANNELS 6 Xposition Yposition Zposition Zrotation Xrotation Yrotation
        End Site
        {
          OFFSET 0.000 -7.778 4.491
        }
      }
    }
  }
  JOINT RightUpLeg
  {
    OFFSET -6.318 -5.789 3.948
    CHANNELS 6 Xposition Yposition Zposition Zrotation Xrotation Yrotation
    JOINT RightLeg
    {
      OFFSET -0.000 -47.818 0.000
      CHANNELS 6 Xposition Yposition Zposition Zrotation Xrotation Yrotation
      JOINT RightFoot
      {
        OFFSET 0.000 -44.415 -0.000
        CHANNELS 6 Xposition Yposition Zposition Zrotation Xrotation Yrotation
        End Site
        {
          OFFSET 0.000 -7.057 4.075
        }
      }
    }
  }
  JOINT Spine
  {
    OFFSET 0.000 5.593 -5.593
    CHANNELS 6 Xposition Yposition Zposition Zrotation Xrotation Yrotation
    JOINT LeftShoulder
    {
      OFFSET -0.000 25.762 0.000
      CHANNELS 6 Xposition Yposition Zposition Zrotation Xrotation Yrotation
      JOINT LeftArm
      {
        OFFSET 16.092 0.000 0.000
        CHANNELS 6 Xposition Yposition Zposition Zrotation Xrotation Yrotation
        JOINT LeftForeArm
        {
          OFFSET 24.375 0.000 0.000
          CHANNELS 6 Xposition Yposition Zposition Zrotation Xrotation Yrotation
          JOINT LeftHand
          {
            OFFSET 23.835 -0.000 -0.000
            CHANNELS 6 Xposition Yposition Zposition Zrotation Xrotation Yrotation
            JOINT LeftHandThumb1
            {
            OFFSET 4.970 -0.620 3.390
            CHANNELS 6 Xposition Yposition Zposition Zrotation Xrotation Yrotation
              JOINT LeftHandThumb2
              {
              OFFSET 2.150 -0.000 0.000
              CHANNELS 6 Xposition Yposition Zposition Zrotation Xrotation Yrotation
                JOINT LeftHandThumb3
                {
                OFFSET 2.200 -0.000 0.000
                CHANNELS 6 Xposition Yposition Zposition Zrotation Xrotation Yrotation
                  JOINT LeftHandThumb4
                  {
                  OFFSET 1.700 -0.000 0.000
                  CHANNELS 6 Xposition Yposition Zposition Zrotation Xrotation Yrotation
                  }
                }
              }
            }
            JOINT LeftHandIndex1
            {
            OFFSET 8.730 0.680 2.070
            CHANNELS 6 Xposition Yposition Zposition Zrotation Xrotation Yrotation
              JOINT LeftHandIndex2
              {
              OFFSET 2.670 -0.000 0.000
              CHANNELS 6 Xposition Yposition Zposition Zrotation Xrotation Yrotation
                JOINT LeftHandIndex3
                {
                OFFSET 2.130 -0.000 0.000
                CHANNELS 6 Xposition Yposition Zposition Zrotation Xrotation Yrotation
                  JOINT LeftHandIndex4
                  {
                  OFFSET 1.800 -0.000 0.000
                  CHANNELS 6 Xposition Yposition Zposition Zrotation Xrotation Yrotation
                  }
                }
              }
            }
            JOINT LeftHandMiddle1
            {
            OFFSET 9.220 0.670 0.550
            CHANNELS 6 Xposition Yposition Zposition Zrotation Xrotation Yrotation
              JOINT LeftHandMiddle2
              {
              OFFSET 2.660 -0.000 0.000
              CHANNELS 6 Xposition Yposition Zposition Zrotation Xrotation Yrotation
                JOINT LeftHandMiddle3
                {
                OFFSET 2.280 -0.000 0.000
                CHANNELS 6 Xposition Yposition Zposition Zrotation Xrotation Yrotation
                  JOINT LeftHandMiddle4
                  {
                  OFFSET 1.500 -0.000 0.000
                  CHANNELS 6 Xposition Yposition Zposition Zrotation Xrotation Yrotation
                  }
                }
              }
            }
            JOINT LeftHandRing1
            {
            OFFSET 9.250 0.670 -1.130
            CHANNELS 6 Xposition Yposition Zposition Zrotation Xrotation Yrotation
              JOINT LeftHandRing2
              {
              OFFSET 2.470 -0.000 0.000
              CHANNELS 6 Xposition Yposition Zposition Zrotation Xrotation Yrotation
                JOINT LeftHandRing3
                {
                OFFSET 2.210 -0.000 0.000
                CHANNELS 6 Xposition Yposition Zposition Zrotation Xrotation Yrotation
                  JOINT LeftHandRing4
                  {
                  OFFSET 1.800 -0.000 0.000
                  CHANNELS 6 Xposition Yposition Zposition Zrotation Xrotation Yrotation
                  }
                }
              }
            }
            JOINT LeftHandPinky1
            {
            OFFSET 9.350 0.660 -2.720
            CHANNELS 6 Xposition Yposition Zposition Zrotation Xrotation Yrotation
              JOINT LeftHandPinky2
              {
              OFFSET 1.630 -0.000 0.000
              CHANNELS 6 Xposition Yposition Zposition Zrotation Xrotation Yrotation
                JOINT LeftHandPinky3
                {
                OFFSET 1.710 -0.000 0.000
                CHANNELS 6 Xposition Yposition Zposition Zrotation Xrotation Yrotation
                  JOINT LeftHandPinky4
                  {
                  OFFSET 1.800 -0.000 0.000
                  CHANNELS 6 Xposition Yposition Zposition Zrotation Xrotation Yrotation
                  }
                }
              }
            }
          }
        }
      }
    }
    JOINT RightShoulder
    {
      OFFSET -0.000 25.762 0.000
      CHANNELS 6 Xposition Yposition Zposition Zrotation Xrotation Yrotation
      JOINT RightArm
      {
        OFFSET -17.460 -0.000 -0.000
        CHANNELS 6 Xposition Yposition Zposition Zrotation Xrotation Yrotation
        JOINT RightForeArm
        {
          OFFSET -23.670 0.000 0.000
          CHANNELS 6 Xposition Yposition Zposition Zrotation Xrotation Yrotation
          JOINT RightHand
          {
            OFFSET -23.026 0.000 -0.000
            CHANNELS 6 Xposition Yposition Zposition Zrotation Xrotation Yrotation
            JOINT RightHandThumb1
            {
            OFFSET -4.970 -0.620 3.390
            CHANNELS 6 Xposition Yposition Zposition Zrotation Xrotation Yrotation
              JOINT RightHandThumb2
              {
              OFFSET -2.150 0.000 0.000
              CHANNELS 6 Xposition Yposition Zposition Zrotation Xrotation Yrotation
                JOINT RightHandThumb3
                {
                OFFSET -2.200 0.000 0.000
                CHANNELS 6 Xposition Yposition Zposition Zrotation Xrotation Yrotation
                  JOINT RightHandThumb4
                  {
                  OFFSET -1.700 0.000 0.000
                  CHANNELS 6 Xposition Yposition Zposition Zrotation Xrotation Yrotation
                  }
                }
              }
            }
            JOINT RightHandIndex1
            {
            OFFSET -8.730 0.680 2.070
            CHANNELS 6 Xposition Yposition Zposition Zrotation Xrotation Yrotation
              JOINT RightHandIndex2
              {
              OFFSET -2.670 0.000 0.000
              CHANNELS 6 Xposition Yposition Zposition Zrotation Xrotation Yrotation
                JOINT RightHandIndex3
                {
                OFFSET -2.130 0.000 0.000
                CHANNELS 6 Xposition Yposition Zposition Zrotation Xrotation Yrotation
                  JOINT RightHandIndex4
                  {
                  OFFSET -1.800 0.000 0.000
                  CHANNELS 6 Xposition Yposition Zposition Zrotation Xrotation Yrotation
                  }
                }
              }
            }
            JOINT RightHandMiddle1
            {
            OFFSET -9.220 0.670 0.550
            CHANNELS 6 Xposition Yposition Zposition Zrotation Xrotation Yrotation
              JOINT RightHandMiddle2
              {
              OFFSET -2.660 0.000 0.000
              CHANNELS 6 Xposition Yposition Zposition Zrotation Xrotation Yrotation
                JOINT RightHandMiddle3
                {
                OFFSET -2.280 0.000 0.000
                CHANNELS 6 Xposition Yposition Zposition Zrotation Xrotation Yrotation
                  JOINT RightHandMiddle4
                  {
                  OFFSET -1.500 0.000 0.000
                  CHANNELS 6 Xposition Yposition Zposition Zrotation Xrotation Yrotation
                  }
                }
              }
            }
            JOINT RightHandRing1
            {
            OFFSET -9.250 0.670 -1.130
            CHANNELS 6 Xposition Yposition Zposition Zrotation Xrotation Yrotation
              JOINT RightHandRing2
              {
              OFFSET -2.470 0.000 0.000
              CHANNELS 6 Xposition Yposition Zposition Zrotation Xrotation Yrotation
                JOINT RightHandRing3
                {
                OFFSET -2.210 0.000 0.000
                CHANNELS 6 Xposition Yposition Zposition Zrotation Xrotation Yrotation
                  JOINT RightHandRing4
                  {
                  OFFSET -1.800 0.000 0.000
                  CHANNELS 6 Xposition Yposition Zposition Zrotation Xrotation Yrotation
                  }
                }
              }
            }
            JOINT RightHandPinky1
            {
            OFFSET -9.350 0.660 -2.720
            CHANNELS 6 Xposition Yposition Zposition Zrotation Xrotation Yrotation
              JOINT RightHandPinky2
              {
              OFFSET -1.630 0.000 0.000
              CHANNELS 6 Xposition Yposition Zposition Zrotation Xrotation Yrotation
                JOINT RightHandPinky3
                {
                OFFSET -1.710 0.000 0.000
                CHANNELS 6 Xposition Yposition Zposition Zrotation Xrotation Yrotation
                  JOINT RightHandPinky4
                  {
                  OFFSET -1.800 0.000 0.000
                  CHANNELS 6 Xposition Yposition Zposition Zrotation Xrotation Yrotation
                  }
                }
              }
            }
          }
        }
      }
    }
    JOINT Neck
    {
      OFFSET -0.000 25.762 0.000
      CHANNELS 6 Xposition Yposition Zposition Zrotation Xrotation Yrotation
      JOINT Head
      {
        OFFSET -0.000 30.681 -0.000
        CHANNELS 6 Xposition Yposition Zposition Zrotation Xrotation Yrotation
        End Site
        {
          OFFSET -0.000 0.123 -0.000
        }
      }
    }
  }
}
MOTION
Frames:	6
Frame Time:	0.0333333
56.4876 39.798 -275.733 13.2281 18.9219 -59.5497 8.25633 -5.26782 3.24965 -3.66751 -33.3638 -4.67517 4.76837e-05 -52.6572 0 11.289 20.0888 -3.63632e-06 -2.38419e-05 -38.6986 -1.19209e-05 -12.5099 -17.6389 -10.9016 -6.95291 -7.55581 3.89466 5.64571 -8.62771 -9.97388 2.38419e-05 -50.031 -3.57628e-05 21.7144 33.7058 1.0263e-05 7.15256e-05 -48.2277 4.76837e-05 -7.71157 -19.5019 -6.85814 2.38419e-05 5.50166 -5.50168 5.24055 -22.3967 -0.183397 2.38419e-05 25.7619 4.76837e-05 -12.4529 1.32335e-05 -10.7055 15.343 2.38419e-05 1.19209e-05 -52.8781 33.9415 -8.8176 23.4301 -2.38419e-05 7.45058e-06 1.44672e-05 3.64812e-06 -114.941 21.2083 -2.38419e-05 2.38419e-05 -7.8846 0.13796 -17.1272 0.0062 0.0497 0.0339 0 0 0 0 0.0215 0 0 0 0 0 0.022 0 0 0 0 0 0.017 0 0 0 0 -0.0068 0.0873 0.0207 0 0 0 0 0.0267 0 0 0 0 0 0.0213 0 0 0 0 0 0.018 0 0 0 0 -0.0067 0.0922 0.0055 0 0 0 0 0.0266 0 0 0 0 0 0.0228 0 0 0 0 0 0.015 0 0 0 0 -0.0067 0.0925 -0.0113 0 0 0 0 0.0247 0 0 0 0 0 0.0221 0 0 0 0 0 0.018 0 0 0 0 -0.0066 0.0935 -0.0272 0 0 0 0 0.0163 0 0 0 0 0 0.0171 0 0 0 0 0 0.018 0 0 0 0 2.38419e-05 25.7619 4.76837e-05 -8.08761 3.41509e-06 8.66638 -18.9149 1.19209e-05 4.76837e-05 80.7655 5.19246 8.0487 -22.7304 -1.19209e-05 0 -1.6462e-05 -3.72058e-06 115.471 -22.7279 0 -1.19209e-05 12.7125 0.428079 7.6832 -0.0062 0.0497 0.0339 13.5 0 0 0 0.0215 0 0 -13.5 0 0 0.022 0 0 -13.5 0 0 0.017 0 0 0 0 0.0068 0.0873 0.0207 13.5 0 0 0 0.0267 0 24 0 0 0 0.0213 0 27 0 0 0 0.018 0 0 0 0 0.0067 0.0922 0.0055 13.5 0 0 0 0.0266 0 24 0 0 0 0.0228 0 27 0 0 0 0.015 0 0 0 0 0.0067 0.0925 -0.0113 13.5 0 0 0 0.0247 0 24 0 0 0 0.0221 0 27 0 0 0 0.018 0 0 0 0 0.0066 0.0935 -0.0272 13.5 0 0 0 0.0163 0 24 0 0 0 0.0171 0 27 0 0 0 0.018 0 0 0 0 2.38419e-05 25.7619 4.76837e-05 7.52994 10.0913 -1.32678 3.57628e-05 29.2751 -4.76837e-05 8.64446e-06 -1.18461e-05 6.83019e-06 
55.2221 40.6032 -275.139 11.9114 18.74 -57.8738 8.52463 -5.55661 3.47167 -3.11626 -31.106 -4.7709 4.76837e-05 -52.6813 1.19209e-05 10.1787 19.2526 1.08522e-05 -4.76837e-05 -38.8157 -3.57628e-05 -12.891 -17.7723 -11.2519 -7.16214 -7.88398 3.83128 1.94912 -13.3375 -14.773 -4.76837e-05 -48.5757 -2.38419e-05 23.8546 41.3389 1.13713e-05 2.38419e-05 -48.1081 0 -8.93879 -18.1169 -7.63563 0 5.43441 -5.43439 4.78527 -22.2752 -0.0923825 -2.38419e-05 25.7619 0 -13.0109 7.68396e-06 -10.0791 15.5159 2.98023e-06 -2.38419e-05 -52.8623 35.1417 -5.89988 23.4049 -2.38419e-05 4.47035e-06 2.37753e-05 -1.55725e-05 -115.652 22.1758 4.76837e-05 -1.19209e-05 -10.9195 0.259072 -18.4744 0.0062 0.0497 0.0339 0 0 0 0 0.0215 0 0 0 0 0 0.022 0 0 0 0 0 0.017 0 0 0 0 -0.0068 0.0873 0.0207 0 0 0 0 0.0267 0 0 0 0 0 0.0213 0 0 0 0 0 0.018 0 0 0 0 -0.0067 0.0922 0.0055 0 0 0 0 0.0266 0 0 0 0 0 0.0228 0 0 0 0 0 0.015 0 0 0 0 -0.0067 0.0925 -0.0113 0 0 0 0 0.0247 0 0 0 0 0 0.0221 0 0 0 0 0 0.018 0 0 0 0 -0.0066 0.0935 -0.0272 0 0 0 0 0.0163 0 0 0 0 0 0.0171 0 0 0 0 0 0.018 0 0 0 0 -2.38419e-05 25.7619 0 -5.65402 0 8.20761 -19.0207 0 0 79.3243 4.50115 6.67551 -22.17 -1.19209e-05 0 1.16306e-05 9.29811e-06 114.629 -22.469 1.19209e-05 1.19209e-05 13.838 0.614176 11.2859 -0.0062 0.0497 0.0339 23.9625 0 0 0 0.0215 0 0 -23.9625 0 0 0.022 0 0 -23.9625 0 0 0.017 0 0 0 0 0.0068 0.0873 0.0207 23.9625 0 0 0 0.0267 0 42.6 0 0 0 0.0213 0 47.925 0 0 0 0.018 0 0 0 0 0.0067 0.0922 0.0055 23.9625 0 0 0 0.0266 0 42.6 0 0 0 0.0228 0 47.925 0 0 0 0.015 0 0 0 0 0.0067 0.0925 -0.0113 23.9625 0 0 0 0.0247 0 42.6 0 0 0 0.0221 0 47.925 0 0 0 0.018 0 0 0 0 0.0066 0.0935 -0.0272 23.9625 0 0 0 0.0163 0 42.6 0 0 0 0.0171 0 47.925 0 0 0 0.018 0 0 0 0 -2.38419e-05 25.7619 0 7.79586 10.4001 -1.41577 2.38419e-05 28.8469 -2.38419e-05 1.09923e-05 -1.05655e-05 -3.4151e-06 
54.1756 41.2773 -274.626 10.9234 18.6097 -56.4679 8.73246 -5.80803 3.68102 -2.60379 -29.3561 -4.65694 4.76837e-05 -52.6449 2.38419e-05 9.23612 18.5227 -7.20334e-06 -2.38419e-05 -38.9192 -3.57628e-05 -13.2916 -17.698 -11.5798 -7.41162 -8.0814 3.84179 -3.22868 -19.1345 -19.1945 2.38419e-05 -46.8639 1.19209e-05 26.0477 47.7327 1.52326e-05 -2.38419e-05 -47.3092 -2.38419e-05 -10.1726 -23.3374 -9.17248 -3.57628e-05 5.39029 -5.39031 4.36184 -22.2402 0.029072 0 25.7619 -2.38419e-05 -13.138 1.28066e-05 -9.51121 15.65 -8.9407e-06 3.57628e-05 -53.3172 35.7027 -3.11159 23.3768 -2.38419e-05 2.98023e-06 1.27579e-05 -3.84728e-06 -116.404 23.0495 4.76837e-05 2.38419e-05 -14.7628 0.429886 -20.0688 0.0062 0.0497 0.0339 0 0 0 0 0.0215 0 0 0 0 0 0.022 0 0 0 0 0 0.017 0 0 0 0 -0.0068 0.0873 0.0207 0 0 0 0 0.0267 0 0 0 0 0 0.0213 0 0 0 0 0 0.018 0 0 0 0 -0.0067 0.0922 0.0055 0 0 0 0 0.0266 0 0 0 0 0 0.0228 0 0 0 0 0 0.015 0 0 0 0 -0.0067 0.0925 -0.0113 0 0 0 0 0.0247 0 0 0 0 0 0.0221 0 0 0 0 0 0.018 0 0 0 0 -0.0066 0.0935 -0.0272 0 0 0 0 0.0163 0 0 0 0 0 0.0171 0 0 0 0 0 0.018 0 0 0 0 0 25.7619 -2.38419e-05 -3.60444 -6.4033e-07 7.77563 -19.1139 -1.19209e-05 2.38419e-05 78.0221 5.15454 5.8262 -21.7381 1.19209e-05 -4.76837e-05 -1.45057e-05 3.72978e-06 115.538 -23.9647 -2.38419e-05 0 14.2157 0.706377 13.9386 -0.0062 0.0497 0.0339 31.995 0 0 0 0.0215 0 0 -31.995 0 0 0.022 0 0 -31.995 0 0 0.017 0 0 0 0 0.0068 0.0873 0.0207 31.995 0 0 0 0.0267 0 56.88 0 0 0 0.0213 0 63.99 0 0 0 0.018 0 0 0 0 0.0067 0.0922 0.0055 31.995 0 0 0 0.0266 0 56.88 0 0 0 0.0228 0 63.99 0 0 0 0.015 0 0 0 0 0.0067 0.0925 -0.0113 31.995 0 0 0 0.0247 0 56.88 0 0 0 0.0221 0 63.99 0 0 0 0.018 0 0 0 0 0.0066 0.0935 -0.0272 31.995 0 0 0 0.0163 0 56.88 0 0 0 0.0171 0 63.99 0 0 0 0.018 0 0 0 0 0 25.7619 -2.38419e-05 8.08072 10.6403 -1.50166 0 28.4839 4.76837e-05 1.07789e-05 -8.64446e-06 1.70755e-06 
53.2451 41.8853 -274.178 10.0556 18.6245 -55.0865 8.83051 -6.03092 3.85513 -1.94853 -27.9511 -4.36823 1.19209e-05 -52.5968 0 8.35578 17.8818 3.58844e-06 7.15256e-05 -39.0514 0 -13.7356 -17.4752 -11.911 -7.59765 -8.12831 3.87034 -11.0683 -26.6075 -27.8272 0 -45.5765 -1.19209e-05 29.1802 58.5596 -6.54721e-06 -4.76837e-05 -48.6525 -2.38419e-05 -10.063 -23.6032 -9.16198 0 5.35818 -5.3582 3.95624 -22.2456 0.229844 -4.76837e-05 25.7619 0 -12.5479 1.8783e-05 -8.89179 15.737 3.27826e-05 1.19209e-05 -54.2834 35.7403 -1.14482 23.4913 -4.76837e-05 5.96046e-06 1.63764e-05 -3.89509e-06 -116.758 23.5761 -4.76837e-05 0 -19.2981 0.645634 -21.508 0.0062 0.0497 0.0339 0 0 0 0 0.0215 0 0 0 0 0 0.022 0 0 0 0 0 0.017 0 0 0 0 -0.0068 0.0873 0.0207 0 0 0 0 0.0267 0 0 0 0 0 0.0213 0 0 0 0 0 0.018 0 0 0 0 -0.0067 0.0922 0.0055 0 0 0 0 0.0266 0 0 0 0 0 0.0228 0 0 0 0 0 0.015 0 0 0 0 -0.0067 0.0925 -0.0113 0 0 0 0 0.0247 0 0 0 0 0 0.0221 0 0 0 0 0 0.018 0 0 0 0 -0.0066 0.0935 -0.0272 0 0 0 0 0.0163 0 0 0 0 0 0.0171 0 0 0 0 0 0.018 0 0 0 0 -4.76837e-05 25.7619 0 -1.8664 3.20165e-06 7.30634 -19.1268 0 -4.76837e-05 77.0299 5.21653 5.75156 -21.4045 -2.38419e-05 0 -2.2041e-06 9.66937e-06 115.682 -24.6488 4.76837e-05 1.19209e-05 14.8711 0.7098 15.6746 -0.0062 0.0497 0.0339 38.0911 0 0 0 0.0215 0 0 -38.0911 0 0 0.022 0 0 -38.0911 0 0 0.017 0 0 0 0 0.0068 0.0873 0.0207 38.0911 0 0 0 0.0267 0 67.7175 0 0 0 0.0213 0 76.1822 0 0 0 0.018 0 0 0 0 0.0067 0.0922 0.0055 38.0911 0 0 0 0.0266 0 67.7175 0 0 0 0.0228 0 76.1822 0 0 0 0.015 0 0 0 0 0.0067 0.0925 -0.0113 38.0911 0 0 0 0.0247 0 67.7175 0 0 0 0.0221 0 76.1822 0 0 0 0.018 0 0 0 0 0.0066 0.0935 -0.0272 38.0911 0 0 0 0.0163 0 67.7175 0 0 0 0.0171 0 76.1822 0 0 0 0.018 0 0 0 0 -4.76837e-05 25.7619 0 8.55881 10.6956 -1.59994 0 28.1502 -2.38419e-05 9.81839e-06 -1.01386e-05 1.70755e-06 
52.4387 42.4267 -273.795 9.42042 18.8141 -53.7083 8.86192 -6.22851 4.04625 -1.36413 -26.9505 -4.42208 -2.38419e-05 -52.5943 2.38419e-05 7.57614 17.2901 3.57672e-06 7.15256e-05 -39.2471 -3.57628e-05 -14.1706 -17.2037 -12.2244 -7.70763 -8.09062 3.85652 -18.2662 -32.1492 -34.7064 4.76837e-05 -45.0516 2.38419e-05 31.1866 64.2084 2.15848e-05 -2.38419e-05 -43.6353 0 -9.62337 -22.3739 -8.70259 1.19209e-05 5.32973 -5.32975 3.59805 -22.4614 0.364783 -1.19209e-05 25.7619 4.76837e-05 -11.9099 1.19528e-05 -8.31757 15.8506 -8.9407e-06 5.96046e-05 -55.4203 35.5206 0.915843 23.5596 -2.38419e-05 -1.19209e-05 -1.46084e-05 -3.93765e-06 -117.074 23.9195 -4.76837e-05 -2.38419e-05 -23.9647 0.841456 -22.4666 0.0062 0.0497 0.0339 0 0 0 0 0.0215 0 0 0 0 0 0.022 0 0 0 0 0 0.017 0 0 0 0 -0.0068 0.0873 0.0207 0 0 0 0 0.0267 0 0 0 0 0 0.0213 0 0 0 0 0 0.018 0 0 0 0 -0.0067 0.0922 0.0055 0 0 0 0 0.0266 0 0 0 0 0 0.0228 0 0 0 0 0 0.015 0 0 0 0 -0.0067 0.0925 -0.0113 0 0 0 0 0.0247 0 0 0 0 0 0.0221 0 0 0 0 0 0.018 0 0 0 0 -0.0066 0.0935 -0.0272 0 0 0 0 0.0163 0 0 0 0 0 0.0171 0 0 0 0 0 0.018 0 0 0 0 -1.19209e-05 25.7619 4.76837e-05 -0.637282 3.94871e-06 6.93387 -18.9933 -1.19209e-05 4.76837e-05 76.2007 5.32082 5.563 -21.1269 -1.19209e-05 0 1.15474e-05 9.47759e-06 115.137 -25.2173 3.57628e-05 -1.19209e-05 15.6535 0.727307 17.5893 -0.0062 0.0497 0.0339 42.651 0 0 0 0.0215 0 0 -42.651 0 0 0.022 0 0 -42.651 0 0 0.017 0 0 0 0 0.0068 0.0873 0.0207 42.651 0 0 0 0.0267 0 75.8239 0 0 0 0.0213 0 85.3019 0 0 0 0.018 0 0 0 0 0.0067 0.0922 0.0055 42.651 0 0 0 0.0266 0 75.8239 0 0 0 0.0228 0 85.3019 0 0 0 0.015 0 0 0 0 0.0067 0.0925 -0.0113 42.651 0 0 0 0.0247 0 75.8239 0 0 0 0.0221 0 85.3019 0 0 0 0.018 0 0 0 0 0.0066 0.0935 -0.0272 42.651 0 0 0 0.0163 0 75.8239 0 0 0 0.0171 0 85.3019 0 0 0 0.018 0 0 0 0 -1.19209e-05 25.7619 4.76837e-05 8.87923 10.8212 -1.68002 1.19209e-05 27.8458 2.38419e-05 1.21663e-05 -1.07789e-05 1.70755e-06 
51.7278 42.8856 -273.435 8.80627 19.1756 -52.1083 8.85834 -6.37999 4.23234 -0.973618 -26.2903 -4.76072 0 -52.6603 2.38419e-05 7.25785 17.0108 -1.78567e-06 -7.15256e-05 -39.3474 -1.19209e-05 -14.6234 -16.8568 -12.5338 -7.76887 -8.04144 3.83811 -28.3277 -37.2087 -45.4394 -2.38419e-05 -44.4099 1.19209e-05 34.3188 71.3069 2.66389e-06 2.38419e-05 -41.0916 3.57628e-05 -8.80149 -18.0906 -7.65998 1.19209e-05 5.30273 -5.30281 3.28086 -22.7883 0.587681 -2.38419e-05 25.7619 7.15256e-05 -11.2707 1.96368e-05 -8.15956 15.9668 -8.9407e-06 -7.15256e-05 -56.4546 34.8842 2.6752 23.6519 2.38419e-05 1.19209e-05 2.46668e-06 1.01974e-05 -117.196 23.0544 0 -2.38419e-05 -27.5055 0.881669 -22.5121 0.0062 0.0497 0.0339 0 0 0 0 0.0215 0 0 0 0 0 0.022 0 0 0 0 0 0.017 0 0 0 0 -0.0068 0.0873 0.0207 0 0 0 0 0.0267 0 0 0 0 0 0.0213 0 0 0 0 0 0.018 0 0 0 0 -0.0067 0.0922 0.0055 0 0 0 0 0.0266 0 0 0 0 0 0.0228 0 0 0 0 0 0.015 0 0 0 0 -0.0067 0.0925 -0.0113 0 0 0 0 0.0247 0 0 0 0 0 0.0221 0 0 0 0 0 0.018 0 0 0 0 -0.0066 0.0935 -0.0272 0 0 0 0 0.0163 0 0 0 0 0 0.0171 0 0 0 0 0 0.018 0 0 0 0 -2.38419e-05 25.7619 7.15256e-05 0.861574 1.06722e-07 6.91816 -18.814 0 -2.38419e-05 71.3195 5.71425 8.79447 -22.2701 -1.19209e-05 4.76837e-05 1.15595e-05 9.45171e-06 115.063 -23.9624 4.76837e-05 0 14.6841 0.64644 18.8123 -0.0062 0.0497 0.0339 45 0 0 0 0.0215 0 0 -45 0 0 0.022 0 0 -45 0 0 0.017 0 0 0 0 0.0068 0.0873 0.0207 45 0 0 0 0.0267 0 80 0 0 0 0.0213 0 90 0 0 0 0.018 0 0 0 0 0.0067 0.0922 0.0055 45 0 0 0 0.0266 0 80 0 0 0 0.0228 0 90 0 0 0 0.015 0 0 0 0 0.0067 0.0925 -0.0113 45 0 0 0 0.0247 0 80 0 0 0 0.0221 0 90 0 0 0 0.018 0 0 0 0 0.0066 0.0935 -0.0272 45 0 0 0 0.0163 0 80 0 0 0 0.0171 0 90 0 0 0 0.018 0 0 0 0 -2.38419e-05 25.7619 7.15256e-05 9.22658 10.9918 -1.77401 5.96046e-05 27.5635 -9.53674e-05 1.02453e-05 -8.75118e-06 -1.19528e-05 
